HIERARCHY
ROOT Hips
{
	OFFSET	0.00	0.00	0.00
	CHANNELS 6 Xposition Yposition Zposition Zrotation Yrotation Xrotation
	JOINT Spine
	{
		OFFSET	 0.00	0.1	 0.00
		CHANNELS 3 Zrotation Yrotation Xrotation
		JOINT Spine1
		{
			OFFSET	 0.00	 24.5913012437421	 0.00
			CHANNELS 3 Zrotation Yrotation Xrotation
            JOINT Neck
            {
                OFFSET	 0.00	 24.8462964506057	 0.00
                CHANNELS 3 Zrotation Yrotation Xrotation
                JOINT Head
                {
                    OFFSET	 0.00	 9.27524780924562	 0.00
                    CHANNELS 3 Zrotation Yrotation Xrotation
                    End Site
                    {
                        OFFSET	 0.00	 11.4999962169752	 0.00
                    }
                }
            }
			JOINT LeftShoulder
			{
				OFFSET	 0.00	 24.8462964506057	 0.00
				CHANNELS 3 Zrotation Yrotation Xrotation
				JOINT LeftUpArm
				{
					OFFSET	 0.00	 12.4881979654096	 0.00
					CHANNELS 3 Zrotation Yrotation Xrotation
					JOINT LeftForeArm
					{
						OFFSET	 0.00	25.9758046908119	 0.00
						CHANNELS 3 Zrotation Yrotation Xrotation
						JOINT LeftHand
						{
							OFFSET	 0.00	24.5542024364365	 0.00
							CHANNELS 3 Zrotation Yrotation Xrotation
							JOINT LeftHandThumb
							{
								OFFSET	 0.00	0.00	 0.00
								CHANNELS 3 Zrotation Yrotation Xrotation
								End Site
								{
									OFFSET	 0.00	0.00	10.0000003353624
								}
							}
							JOINT L_Wrist_End
							{
								OFFSET	 0.00	9.9999967115358	 0.00
								CHANNELS 3 Zrotation Yrotation Xrotation
								End Site
								{
									OFFSET	 0.00	 0.00	 0.00
								}
							}
						}
					}
				}
			}
			JOINT RightShoulder
			{
				OFFSET	 0.00	 24.8462964506057	 0.00
				CHANNELS 3 Zrotation Yrotation Xrotation
				JOINT RightUpArm
				{
					OFFSET	 0.00	 12.4881979654096	 0.00
					CHANNELS 3 Zrotation Yrotation Xrotation
					JOINT RightForeArm
					{
						OFFSET	 0.00	25.9758046908119	 0.00
						CHANNELS 3 Zrotation Yrotation Xrotation
						JOINT RightHand
						{
							OFFSET	 0.00	24.5542024364365	 0.00
							CHANNELS 3 Zrotation Yrotation Xrotation
							JOINT RightHandThumb
							{
								OFFSET	 0.00	0.00	 0.00
								CHANNELS 3 Zrotation Yrotation Xrotation
								End Site
								{
									OFFSET	 0.00	0.00	10.0000003353624
								}
							}
							JOINT R_Wrist_End
							{
								OFFSET	 0.00	9.9999967115358	 0.00
								CHANNELS 3 Zrotation Yrotation Xrotation
								End Site
								{
									OFFSET	 0.00	 0.00	 0.00
								}
							}
						}
					}
				}
			}
		}
	}
	JOINT LeftUpLeg
	{
		OFFSET	 12.719394002717	 0.00	 0.00
		CHANNELS 3 Zrotation Yrotation Xrotation
		JOINT LeftLowLeg
		{
			OFFSET	 0.00	-43.429100912261	 0.00
			CHANNELS 3 Zrotation Yrotation Xrotation
			JOINT LeftFoot
			{
				OFFSET	 0.00	-44.8767017425826	 0.00
				CHANNELS 3 Zrotation Yrotation Xrotation
				JOINT LeftToeBase
                {
                    OFFSET	 0.00	0.00	 15.1507020887566
                    CHANNELS 3 Zrotation Yrotation Xrotation
                    End Site
                    {
                        OFFSET	 0.00	0.00	 7.5000010571191
                    }
                }
			}
		}
	}
	JOINT RightUpLeg
	{
		OFFSET	 -12.719393604653	 0.00	 0.00
		CHANNELS 3 Zrotation Yrotation Xrotation
		JOINT RightLowLeg
		{
			OFFSET	 0.00	-43.429100912261	 0.00
			CHANNELS 3 Zrotation Yrotation Xrotation
			JOINT RightFoot
			{
				OFFSET	 0.00	-44.8767017425826	 0.00
				CHANNELS 3 Zrotation Yrotation Xrotation
				JOINT RightToeBase
                {
                    OFFSET	 0.00	0.00	 15.1507020887566
                    CHANNELS 3 Zrotation Yrotation Xrotation
                    End Site 
                    {
                        OFFSET	 0.00	0.00	 7.49999965609858
                    }
                }   
			}
		}
	}
}
MOTION 
Frames:	7 
Frame Time: 0.04 
 -15.72729949951172 104.6949951171875 -1.876799964904785 -5.671635708310245 3.2571744090855352 -3.499932412692424 7.485640071594139 -1.6215336590761 -23.194830492101225 -1.0595624375062047 0.8183439977752187 38.76099389256343 -2.4573769481976013 -0.3997688528047595 19.846004313468868 7.101806779615815 4.470853656272361 -73.69218674569125 -119.34090737553757 -10.62132556444524 2.585202024163121 -40.40860482093216 35.53323282675716 -6.13269774564138 0.0 0.0 25.46039962768555 6.959697370814927 2.6497956595624044 -7.640908560550773 0.0 0.0 0.0 0.0 0.0 0.0 119.03769218010754 1.5507903725151384 1.1264826754513966 37.18911135767926 -20.855769349110915 6.650704095928544 0.0 0.0 21.607200622558594 -2.0574693721455897 7.11333087500291 -1.7133412251816358 0.0 0.0 0.0 0.0 0.0 0.0 10.056494112793294 16.892026019314187 11.738820020222068 0.0 0.0 1.5558099746704104 -6.610034848385153 6.7595970785282855 7.270932182397411 0.0 0.0 -10.52680969238281 9.081948844058292 9.309819138749525 7.286944310964165 0.0 0.0 6.045050144195557 12.881451233113895 -23.14458849421498 10.66368306941609 0.0 0.0 -13.080599784851076 
  -15.749600219726563 104.69599609375 -1.900320053100586 -5.663495831145738 3.3122174271920017 -3.530546743690726 7.507977469233684 -1.5035121983325477 -23.220363265276514 -1.3251668497550169 0.7798399495084458 38.89138100697366 -2.3417665643897165 -0.4718925297030587 19.986506558753447 6.85112067820215 4.47005271038567 -73.35516351172559 -119.30376758256018 -10.588948812513255 2.622631701255361 -40.067265773612 35.46087906594796 -5.66845195348599 0.0 0.0 25.702100753784176 6.950928123134315 2.9903791551362384 -7.788401058358961 0.0 0.0 0.0 0.0 0.0 0.0 119.1140520684856 1.6007284426066948 1.093716835259454 37.19734723338294 -20.592775145496876 6.646200388170035 0.0 0.0 21.814800262451172 -2.07059489098397 7.268313917491875 -1.97782900048637 0.0 0.0 0.0 0.0 0.0 0.0 10.065717340807153 16.863858158197388 11.763737923512096 0.0 0.0 1.5062700510025024 -6.624569090074791 6.726425048456005 7.31250608913956 0.0 0.0 -10.50790023803711 9.089270546989342 9.276738370264919 7.262303791991537 0.0 0.0 6.122529983520508 12.890319949260197 -23.168261289440608 10.638148007057566 0.0 0.0 -13.081270217895508 
  -15.777299499511718 104.7030029296875 -1.9417900085449218 -5.6664230883311495 3.333174572046845 -3.6085884244414617 7.624938892431173 -1.1802218094878436 -23.20591183445526 -1.9244692340386171 0.674861646959115 39.063925145536025 -2.0436057577247935 -0.5086625993031233 20.189829463139695 6.583280230401871 4.642935385674474 -73.13958228559083 -119.0621621214565 -10.639706294346489 2.6929718678332017 -39.58534035932889 35.59993189831763 -4.995449348035661 0.0 0.0 26.060899734497074 7.034100845859342 2.944126710853271 -7.774354692900056 0.0 0.0 0.0 0.0 0.0 0.0 119.36007645964334 1.5707186661356203 1.1410088442436448 37.05464964172072 -20.43942065542339 6.895413650640329 0.0 0.0 22.151100158691406 -2.3093970654634495 7.29599806468581 -1.9004629932347779 0.0 0.0 0.0 0.0 0.0 0.0 10.090516406468318 16.822322622538167 11.809159312192156 0.0 0.0 1.5006699562072752 -6.62617633980297 6.752948064462747 7.34918438623046 0.0 0.0 -10.517930030822752 9.129263463735343 9.340268553231516 7.224432925050435 0.0 0.0 6.300489902496338 12.945955216468292 -23.259819855783515 10.579222528135011 0.0 0.0 -13.05679988861084 
  -15.824400329589844 104.71400146484375 -1.9968000411987306 -5.66887108182284 3.3084403829553732 -3.6662296799149052 7.623500001518068 -1.0895712776669444 -23.22654506932061 -2.125264088577413 0.6661609508249553 39.25816595082126 -1.9891803373173595 -0.44414371539045333 20.406440282972095 6.568124131951421 4.690598829937729 -72.8155128378499 -119.03476633028339 -10.626766476455664 2.8801470344678313 -38.944267330256494 35.62947593551991 -4.108129026588781 0.0 0.0 26.554800033569336 7.273969440312381 2.543767203107402 -7.699713178140416 0.0 0.0 0.0 0.0 0.0 0.0 119.43630605303338 1.5981641206453543 1.2263070538931788 36.82764565524463 -20.252733933626043 7.253498963921661 0.0 0.0 22.489299774169925 -2.4634092893688453 7.1393013230831475 -1.5265683497429074 0.0 0.0 0.0 0.0 0.0 0.0 10.121809947203483 16.802965911136113 11.824471852778105 0.0 0.0 1.5203900337219238 -6.650401590549894 6.793959576171465 7.393453900251956 0.0 0.0 -10.494760513305662 9.15858364861025 9.300299822532233 7.119663951401656 0.0 0.0 6.531249999999999 12.896537476832698 -23.269757996009805 10.590094858063098 0.0 0.0 -13.068840026855469 
  -15.891499328613282 104.727001953125 -2.0688400268554688 -5.660611747760148 3.1981514370337427 -3.7053456483970493 7.593391068501927 -1.0243968403743036 -23.257435664753867 -2.2615918423325923 0.6872264607160103 39.402284605296614 -1.7892059653173868 -0.5184954673294806 20.892794631520808 6.575639679669815 4.6907988516588075 -72.28868258238433 -119.01397064092107 -10.662542029810677 3.0889644755076433 -38.22813393364923 35.73098180623227 -3.128419727705165 0.0 0.0 27.1648006439209 7.7029633709906244 3.0132557396470228 -7.544561709769069 0.0 0.0 0.0 0.0 0.0 0.0 119.46816770342124 1.5483941254954805 1.3752422591295415 36.52397245839283 -20.073129640052933 7.756536637504633 0.0 0.0 22.923500061035156 -2.6126578323372613 6.929181154346016 -1.4436162867326028 0.0 0.0 0.0 0.0 0.0 0.0 10.144408507481172 16.77826439990299 11.830339877512062 0.0 0.0 1.550320029258728 -6.743030720891734 6.883431587820049 7.43059844336351 0.0 0.0 -10.46442985534668 9.182489273424691 9.280134154787003 6.992336042547364 0.0 0.0 6.753280162811279 12.765273890816605 -23.232380029071226 10.632573626409929 0.0 0.0 -13.017359733581545 
  -15.969999694824219 104.73599853515626 -2.144759941101074 -5.656260449376699 2.9621945232043547 -3.708488074177289 7.648499959615437 -0.7863954637739131 -23.319627123594614 -2.5956921652036637 0.687553690654448 39.549804740022914 -1.5445381313914968 -0.47221035748074053 21.66077266202695 6.716259754445375 4.756185122754183 -71.42419463002005 -118.81618501058554 -10.682416037503454 3.295320085275268 -37.51233174430945 35.708188687952685 -2.068995350550779 0.0 0.0 27.865299224853516 8.162586485586505 3.0355761343671785 -7.4585248068144905 0.0 0.0 0.0 0.0 0.0 0.0 119.53525109415152 1.4650161978743905 1.5467256586144746 36.20725481536813 -19.900177677004088 8.421298728256359 0.0 0.0 23.382600784301754 -2.8128887332203325 6.988618900073913 -1.2591565616739484 0.0 0.0 0.0 0.0 0.0 0.0 10.22178618355316 16.999373469117835 11.904336719653958 0.0 0.0 1.4703199863433838 -6.867464985162541 6.824716142666596 7.52142944070581 0.0 0.0 -10.440099716186525 9.212076965054534 9.366684506106713 6.835544640184557 0.0 0.0 6.96189022064209 12.658030265041049 -23.16930054161499 10.683835163773677 0.0 0.0 -13.0423002243042 
  -16.06719970703125 104.743994140625 -2.323320007324219 -5.6496826346511755 2.9603901638641332 -3.7636188318529826 7.615418098313841 -0.8889240758725547 -23.288467581213503 -2.740086380167838 0.5884961280085308 39.7941167479166 -1.5275787988294325 -0.24881678308461996 22.575824293010875 6.986421747912255 4.746641633806635 -70.27865532734259 -118.73478709188034 -10.814327700906532 3.55632809124994 -36.69905421074704 35.73265721041147 -0.9637250735031279 0.0 0.0 28.741199493408203 8.668534254606888 2.7175272835979634 -7.263832751429891 0.0 0.0 0.0 0.0 0.0 0.0 119.55990075724964 1.3997439496069302 1.858094663160314 35.650878566790105 -19.62316729264387 9.225026740725234 0.0 0.0 23.993200302124027 -2.9130285780817706 6.890606212687949 -1.202657995436724 0.0 0.0 0.0 0.0 0.0 0.0 10.208350395528049 16.73733301857635 11.807673425173574 0.0 0.0 1.5307400226593018 -6.966737783577019 7.008523164597772 7.542148737660796 0.0 0.0 -10.436340332031252 9.219889946777174 9.174121153890107 6.662199130230074 0.0 0.0 7.180490016937256 12.566817265160523 -23.04248117212543 10.733934350357801 0.0 0.0 -13.068120002746584 
